{
    "asset" : {
        "generator" : "Khronos glTF Blender I/O v1.7.33",
        "version" : "2.0"
    },
    "scene" : 0,
    "scenes" : [
        {
            "name" : "Scene",
            "nodes" : [
                0
            ]
        }
    ],
    "nodes" : [
        {
            "mesh" : 0,
            "name" : "Cone.004",
            "rotation" : [
                0,
                0.9956830739974976,
                0,
                0.09281829744577408
            ],
            "scale" : [
                0.25859907269477844,
                1,
                0.25372055172920227
            ],
            "translation" : [
                0,
                0,
                0.1584082990884781
            ]
        }
    ],
    "meshes" : [
        {
            "name" : "Cone.009",
            "primitives" : [
                {
                    "attributes" : {
                        "POSITION" : 0,
                        "NORMAL" : 1,
                        "TEXCOORD_0" : 2
                    },
                    "indices" : 3
                }
            ]
        }
    ],
    "accessors" : [
        {
            "bufferView" : 0,
            "componentType" : 5126,
            "count" : 72,
            "max" : [
                2.4680566787719727,
                1.1933462619781494,
                3.055178642272949
            ],
            "min" : [
                -2.041044235229492,
                -1,
                -2.0320563316345215
            ],
            "type" : "VEC3"
        },
        {
            "bufferView" : 1,
            "componentType" : 5126,
            "count" : 72,
            "type" : "VEC3"
        },
        {
            "bufferView" : 2,
            "componentType" : 5126,
            "count" : 72,
            "type" : "VEC2"
        },
        {
            "bufferView" : 3,
            "componentType" : 5123,
            "count" : 72,
            "type" : "SCALAR"
        }
    ],
    "bufferViews" : [
        {
            "buffer" : 0,
            "byteLength" : 864,
            "byteOffset" : 0
        },
        {
            "buffer" : 0,
            "byteLength" : 864,
            "byteOffset" : 864
        },
        {
            "buffer" : 0,
            "byteLength" : 576,
            "byteOffset" : 1728
        },
        {
            "buffer" : 0,
            "byteLength" : 144,
            "byteOffset" : 2304
        }
    ],
    "buffers" : [
        {
            "byteLength" : 2448,
            "uri" : "data:application/octet-stream;base64,"
        }
    ]
}
